<mxfile host="app.diagrams.net" agent="Mozilla/5.0 (X11; Linux x86_64) AppleWebKit/537.36 (KHTML, like Gecko) Chrome/127.0.0.0 Safari/537.36" version="24.7.4">
  <diagram name="Page-1" id="A-ddbPzJXm0a9Q5nOjXU">
    <mxGraphModel grid="1" page="1" gridSize="10" guides="1" tooltips="1" connect="1" arrows="1" fold="1" pageScale="1" pageWidth="850" pageHeight="1100" math="0" shadow="0">
      <root>
        <mxCell id="0" />
        <mxCell id="1" parent="0" />
        <mxCell id="fp7W2-NEHHaZq4j7TUGE-1" value="a" style="ellipse;whiteSpace=wrap;html=1;aspect=fixed;fillColor=#000000;fontStyle=1" vertex="1" parent="1">
          <mxGeometry x="425" y="60" width="20" height="20" as="geometry" />
        </mxCell>
        <mxCell id="fp7W2-NEHHaZq4j7TUGE-3" value="&lt;span&gt;Insert Card&lt;/span&gt;" style="rounded=1;whiteSpace=wrap;html=1;strokeWidth=3;fontStyle=1" vertex="1" parent="1">
          <mxGeometry x="375" y="130" width="120" height="40" as="geometry" />
        </mxCell>
        <mxCell id="fp7W2-NEHHaZq4j7TUGE-4" value="&lt;span&gt;Enter Pin&lt;/span&gt;" style="rounded=1;whiteSpace=wrap;html=1;strokeWidth=3;fontStyle=1" vertex="1" parent="1">
          <mxGeometry x="375" y="210" width="120" height="40" as="geometry" />
        </mxCell>
        <mxCell id="fp7W2-NEHHaZq4j7TUGE-5" value="&lt;span&gt;Check&lt;/span&gt;" style="rhombus;whiteSpace=wrap;html=1;strokeWidth=3;fontStyle=1" vertex="1" parent="1">
          <mxGeometry x="397" y="297" width="77" height="80" as="geometry" />
        </mxCell>
        <mxCell id="fp7W2-NEHHaZq4j7TUGE-6" value="&lt;span&gt;Enter Amount&lt;/span&gt;" style="rounded=1;whiteSpace=wrap;html=1;strokeWidth=3;fontStyle=1" vertex="1" parent="1">
          <mxGeometry x="375" y="430" width="120" height="40" as="geometry" />
        </mxCell>
        <mxCell id="fp7W2-NEHHaZq4j7TUGE-7" value="&lt;span&gt;Check&lt;/span&gt;&lt;div&gt;&lt;span&gt;Account&lt;/span&gt;&lt;/div&gt;&lt;div&gt;&lt;span&gt;Balance&lt;/span&gt;&lt;/div&gt;" style="rhombus;whiteSpace=wrap;html=1;strokeWidth=3;fontStyle=1" vertex="1" parent="1">
          <mxGeometry x="387" y="520" width="97" height="100" as="geometry" />
        </mxCell>
        <mxCell id="fp7W2-NEHHaZq4j7TUGE-8" value="&lt;span&gt;Submit&lt;/span&gt;" style="rounded=1;whiteSpace=wrap;html=1;strokeWidth=3;fontStyle=1" vertex="1" parent="1">
          <mxGeometry x="180" y="670" width="120" height="40" as="geometry" />
        </mxCell>
        <mxCell id="fp7W2-NEHHaZq4j7TUGE-9" value="" style="endArrow=none;html=1;rounded=0;fontStyle=1;strokeWidth=3;" edge="1" parent="1">
          <mxGeometry width="50" height="50" relative="1" as="geometry">
            <mxPoint x="80" y="750" as="sourcePoint" />
            <mxPoint x="400" y="750" as="targetPoint" />
          </mxGeometry>
        </mxCell>
        <mxCell id="fp7W2-NEHHaZq4j7TUGE-10" value="" style="endArrow=classic;html=1;rounded=0;fontStyle=1;strokeWidth=3;" edge="1" parent="1">
          <mxGeometry width="50" height="50" relative="1" as="geometry">
            <mxPoint x="120" y="750" as="sourcePoint" />
            <mxPoint x="120" y="790" as="targetPoint" />
          </mxGeometry>
        </mxCell>
        <mxCell id="fp7W2-NEHHaZq4j7TUGE-11" value="" style="endArrow=classic;html=1;rounded=0;fontStyle=1;strokeWidth=3;" edge="1" parent="1">
          <mxGeometry width="50" height="50" relative="1" as="geometry">
            <mxPoint x="239.81" y="750" as="sourcePoint" />
            <mxPoint x="239.81" y="790" as="targetPoint" />
          </mxGeometry>
        </mxCell>
        <mxCell id="fp7W2-NEHHaZq4j7TUGE-12" value="" style="endArrow=classic;html=1;rounded=0;fontStyle=1;strokeWidth=3;" edge="1" parent="1">
          <mxGeometry width="50" height="50" relative="1" as="geometry">
            <mxPoint x="360" y="750" as="sourcePoint" />
            <mxPoint x="360" y="790" as="targetPoint" />
          </mxGeometry>
        </mxCell>
        <mxCell id="fp7W2-NEHHaZq4j7TUGE-13" value="Take Money&lt;div&gt;From Slot&lt;/div&gt;" style="text;strokeColor=none;align=center;fillColor=none;html=1;verticalAlign=middle;whiteSpace=wrap;rounded=0;fontStyle=1" vertex="1" parent="1">
          <mxGeometry x="80" y="790" width="70" height="30" as="geometry" />
        </mxCell>
        <mxCell id="fp7W2-NEHHaZq4j7TUGE-14" value="Message on&lt;br&gt;Mobile" style="text;strokeColor=none;align=center;fillColor=none;html=1;verticalAlign=middle;whiteSpace=wrap;rounded=0;fontStyle=1" vertex="1" parent="1">
          <mxGeometry x="200" y="790" width="80" height="30" as="geometry" />
        </mxCell>
        <mxCell id="fp7W2-NEHHaZq4j7TUGE-15" value="Balance on&lt;br&gt;Screen" style="text;strokeColor=none;align=center;fillColor=none;html=1;verticalAlign=middle;whiteSpace=wrap;rounded=0;fontStyle=1" vertex="1" parent="1">
          <mxGeometry x="327" y="790" width="70" height="30" as="geometry" />
        </mxCell>
        <mxCell id="fp7W2-NEHHaZq4j7TUGE-16" value="&lt;span&gt;Eject Card&lt;/span&gt;" style="rounded=1;whiteSpace=wrap;html=1;strokeWidth=3;fontStyle=1" vertex="1" parent="1">
          <mxGeometry x="180" y="900" width="120" height="40" as="geometry" />
        </mxCell>
        <mxCell id="fp7W2-NEHHaZq4j7TUGE-17" value="" style="endArrow=classic;html=1;rounded=0;exitX=0.5;exitY=1;exitDx=0;exitDy=0;entryX=0.5;entryY=0;entryDx=0;entryDy=0;strokeWidth=3;" edge="1" parent="1" source="fp7W2-NEHHaZq4j7TUGE-3" target="fp7W2-NEHHaZq4j7TUGE-4">
          <mxGeometry width="50" height="50" relative="1" as="geometry">
            <mxPoint x="450" y="380" as="sourcePoint" />
            <mxPoint x="500" y="330" as="targetPoint" />
          </mxGeometry>
        </mxCell>
        <mxCell id="fp7W2-NEHHaZq4j7TUGE-19" value="" style="endArrow=classic;html=1;rounded=0;exitX=0.5;exitY=1;exitDx=0;exitDy=0;entryX=0.5;entryY=0;entryDx=0;entryDy=0;strokeWidth=3;" edge="1" parent="1" source="fp7W2-NEHHaZq4j7TUGE-4" target="fp7W2-NEHHaZq4j7TUGE-5">
          <mxGeometry width="50" height="50" relative="1" as="geometry">
            <mxPoint x="450" y="380" as="sourcePoint" />
            <mxPoint x="500" y="330" as="targetPoint" />
          </mxGeometry>
        </mxCell>
        <mxCell id="fp7W2-NEHHaZq4j7TUGE-20" value="" style="endArrow=classic;html=1;rounded=0;exitX=0.5;exitY=1;exitDx=0;exitDy=0;entryX=0.5;entryY=0;entryDx=0;entryDy=0;strokeWidth=3;" edge="1" parent="1" source="fp7W2-NEHHaZq4j7TUGE-5" target="fp7W2-NEHHaZq4j7TUGE-6">
          <mxGeometry width="50" height="50" relative="1" as="geometry">
            <mxPoint x="450" y="380" as="sourcePoint" />
            <mxPoint x="500" y="330" as="targetPoint" />
          </mxGeometry>
        </mxCell>
        <mxCell id="fp7W2-NEHHaZq4j7TUGE-21" value="" style="endArrow=classic;html=1;rounded=0;exitX=0.5;exitY=1;exitDx=0;exitDy=0;entryX=0.5;entryY=0;entryDx=0;entryDy=0;strokeWidth=3;" edge="1" parent="1" source="fp7W2-NEHHaZq4j7TUGE-6" target="fp7W2-NEHHaZq4j7TUGE-7">
          <mxGeometry width="50" height="50" relative="1" as="geometry">
            <mxPoint x="450" y="660" as="sourcePoint" />
            <mxPoint x="500" y="610" as="targetPoint" />
          </mxGeometry>
        </mxCell>
        <mxCell id="fp7W2-NEHHaZq4j7TUGE-22" value="" style="endArrow=classic;html=1;rounded=0;exitX=0.5;exitY=1;exitDx=0;exitDy=0;entryX=0.5;entryY=0;entryDx=0;entryDy=0;strokeWidth=3;" edge="1" parent="1" source="fp7W2-NEHHaZq4j7TUGE-7" target="fp7W2-NEHHaZq4j7TUGE-8">
          <mxGeometry width="50" height="50" relative="1" as="geometry">
            <mxPoint x="450" y="660" as="sourcePoint" />
            <mxPoint x="500" y="610" as="targetPoint" />
            <Array as="points">
              <mxPoint x="436" y="640" />
              <mxPoint x="240" y="640" />
            </Array>
          </mxGeometry>
        </mxCell>
        <mxCell id="fp7W2-NEHHaZq4j7TUGE-23" value="" style="endArrow=classic;html=1;rounded=0;exitX=0.5;exitY=1;exitDx=0;exitDy=0;strokeWidth=3;" edge="1" parent="1" source="fp7W2-NEHHaZq4j7TUGE-8">
          <mxGeometry width="50" height="50" relative="1" as="geometry">
            <mxPoint x="450" y="660" as="sourcePoint" />
            <mxPoint x="240" y="750" as="targetPoint" />
          </mxGeometry>
        </mxCell>
        <mxCell id="fp7W2-NEHHaZq4j7TUGE-24" value="" style="endArrow=classic;html=1;rounded=0;exitX=1;exitY=0.5;exitDx=0;exitDy=0;strokeWidth=3;entryX=0.5;entryY=0;entryDx=0;entryDy=0;" edge="1" parent="1" source="fp7W2-NEHHaZq4j7TUGE-7" target="fp7W2-NEHHaZq4j7TUGE-41">
          <mxGeometry width="50" height="50" relative="1" as="geometry">
            <mxPoint x="450" y="660" as="sourcePoint" />
            <mxPoint x="690" y="690" as="targetPoint" />
            <Array as="points">
              <mxPoint x="620" y="570" />
              <mxPoint x="690" y="570" />
            </Array>
          </mxGeometry>
        </mxCell>
        <mxCell id="fp7W2-NEHHaZq4j7TUGE-25" value="" style="endArrow=none;html=1;rounded=0;fontStyle=1;strokeWidth=3;" edge="1" parent="1">
          <mxGeometry width="50" height="50" relative="1" as="geometry">
            <mxPoint x="80" y="860" as="sourcePoint" />
            <mxPoint x="400" y="860" as="targetPoint" />
          </mxGeometry>
        </mxCell>
        <mxCell id="fp7W2-NEHHaZq4j7TUGE-26" value="" style="endArrow=classic;html=1;rounded=0;entryX=0.5;entryY=0;entryDx=0;entryDy=0;strokeWidth=3;" edge="1" parent="1" target="fp7W2-NEHHaZq4j7TUGE-16">
          <mxGeometry width="50" height="50" relative="1" as="geometry">
            <mxPoint x="240" y="860" as="sourcePoint" />
            <mxPoint x="460" y="830" as="targetPoint" />
          </mxGeometry>
        </mxCell>
        <mxCell id="fp7W2-NEHHaZq4j7TUGE-27" value="" style="endArrow=classic;html=1;rounded=0;exitX=0.5;exitY=1;exitDx=0;exitDy=0;strokeWidth=3;" edge="1" parent="1" source="fp7W2-NEHHaZq4j7TUGE-13">
          <mxGeometry width="50" height="50" relative="1" as="geometry">
            <mxPoint x="410" y="880" as="sourcePoint" />
            <mxPoint x="220" y="860" as="targetPoint" />
          </mxGeometry>
        </mxCell>
        <mxCell id="fp7W2-NEHHaZq4j7TUGE-28" value="" style="endArrow=classic;html=1;rounded=0;exitX=0.5;exitY=1;exitDx=0;exitDy=0;strokeWidth=3;" edge="1" parent="1" source="fp7W2-NEHHaZq4j7TUGE-14">
          <mxGeometry width="50" height="50" relative="1" as="geometry">
            <mxPoint x="210" y="880" as="sourcePoint" />
            <mxPoint x="240" y="860" as="targetPoint" />
          </mxGeometry>
        </mxCell>
        <mxCell id="fp7W2-NEHHaZq4j7TUGE-29" value="" style="endArrow=classic;html=1;rounded=0;exitX=0.5;exitY=1;exitDx=0;exitDy=0;strokeWidth=3;" edge="1" parent="1" source="fp7W2-NEHHaZq4j7TUGE-15">
          <mxGeometry width="50" height="50" relative="1" as="geometry">
            <mxPoint x="210" y="880" as="sourcePoint" />
            <mxPoint x="260" y="860" as="targetPoint" />
          </mxGeometry>
        </mxCell>
        <mxCell id="fp7W2-NEHHaZq4j7TUGE-32" value="" style="group" connectable="0" vertex="1" parent="1">
          <mxGeometry x="230" y="980" width="20" height="20" as="geometry" />
        </mxCell>
        <mxCell id="fp7W2-NEHHaZq4j7TUGE-31" value="" style="ellipse;whiteSpace=wrap;html=1;aspect=fixed;strokeWidth=2;" vertex="1" parent="fp7W2-NEHHaZq4j7TUGE-32">
          <mxGeometry width="20" height="20" as="geometry" />
        </mxCell>
        <mxCell id="fp7W2-NEHHaZq4j7TUGE-30" value="" style="ellipse;whiteSpace=wrap;html=1;aspect=fixed;fillColor=#000000;fontStyle=1" vertex="1" parent="fp7W2-NEHHaZq4j7TUGE-32">
          <mxGeometry x="5" y="5" width="10" height="10" as="geometry" />
        </mxCell>
        <mxCell id="fp7W2-NEHHaZq4j7TUGE-35" value="" style="endArrow=classic;html=1;rounded=0;exitX=0.5;exitY=1;exitDx=0;exitDy=0;entryX=0.5;entryY=0;entryDx=0;entryDy=0;strokeWidth=3;" edge="1" parent="1" source="fp7W2-NEHHaZq4j7TUGE-16" target="fp7W2-NEHHaZq4j7TUGE-31">
          <mxGeometry width="50" height="50" relative="1" as="geometry">
            <mxPoint x="170" y="860" as="sourcePoint" />
            <mxPoint x="220" y="810" as="targetPoint" />
          </mxGeometry>
        </mxCell>
        <mxCell id="fp7W2-NEHHaZq4j7TUGE-36" value="" style="endArrow=classic;html=1;rounded=0;exitX=0.5;exitY=1;exitDx=0;exitDy=0;entryX=0.5;entryY=0;entryDx=0;entryDy=0;strokeWidth=3;" edge="1" parent="1" source="fp7W2-NEHHaZq4j7TUGE-1" target="fp7W2-NEHHaZq4j7TUGE-3">
          <mxGeometry width="50" height="50" relative="1" as="geometry">
            <mxPoint x="420" y="210" as="sourcePoint" />
            <mxPoint x="470" y="160" as="targetPoint" />
          </mxGeometry>
        </mxCell>
        <mxCell id="fp7W2-NEHHaZq4j7TUGE-39" value="&lt;b&gt;balance &amp;lt; amount&lt;/b&gt;" style="text;strokeColor=none;align=center;fillColor=none;html=1;verticalAlign=middle;whiteSpace=wrap;rounded=0;" vertex="1" parent="1">
          <mxGeometry x="495" y="540" width="120" height="30" as="geometry" />
        </mxCell>
        <mxCell id="fp7W2-NEHHaZq4j7TUGE-40" value="&lt;b&gt;balance &amp;gt;= amount&lt;/b&gt;" style="text;strokeColor=none;align=center;fillColor=none;html=1;verticalAlign=middle;whiteSpace=wrap;rounded=0;" vertex="1" parent="1">
          <mxGeometry x="277" y="610" width="120" height="30" as="geometry" />
        </mxCell>
        <mxCell id="fp7W2-NEHHaZq4j7TUGE-41" value="&lt;span&gt;Transaction Failed&lt;/span&gt;" style="rounded=1;whiteSpace=wrap;html=1;strokeWidth=3;fontStyle=1" vertex="1" parent="1">
          <mxGeometry x="630" y="710" width="120" height="40" as="geometry" />
        </mxCell>
        <mxCell id="fp7W2-NEHHaZq4j7TUGE-42" value="" style="endArrow=classic;html=1;rounded=0;exitX=0.5;exitY=1;exitDx=0;exitDy=0;strokeWidth=3;entryX=1;entryY=0.5;entryDx=0;entryDy=0;" edge="1" parent="1" source="fp7W2-NEHHaZq4j7TUGE-41" target="fp7W2-NEHHaZq4j7TUGE-16">
          <mxGeometry width="50" height="50" relative="1" as="geometry">
            <mxPoint x="494" y="580" as="sourcePoint" />
            <mxPoint x="700" y="720" as="targetPoint" />
            <Array as="points">
              <mxPoint x="690" y="920" />
              <mxPoint x="520" y="920" />
            </Array>
          </mxGeometry>
        </mxCell>
        <mxCell id="fp7W2-NEHHaZq4j7TUGE-43" value="&lt;b&gt;Valid&lt;/b&gt;" style="text;strokeColor=none;align=center;fillColor=none;html=1;verticalAlign=middle;whiteSpace=wrap;rounded=0;" vertex="1" parent="1">
          <mxGeometry x="425" y="377" width="60" height="30" as="geometry" />
        </mxCell>
        <mxCell id="fp7W2-NEHHaZq4j7TUGE-44" value="" style="endArrow=classic;html=1;rounded=0;exitX=1;exitY=0.5;exitDx=0;exitDy=0;strokeWidth=3;" edge="1" parent="1" source="fp7W2-NEHHaZq4j7TUGE-5">
          <mxGeometry width="50" height="50" relative="1" as="geometry">
            <mxPoint x="420" y="410" as="sourcePoint" />
            <mxPoint x="690" y="570" as="targetPoint" />
            <Array as="points">
              <mxPoint x="690" y="337" />
            </Array>
          </mxGeometry>
        </mxCell>
        <mxCell id="fp7W2-NEHHaZq4j7TUGE-45" value="&lt;b&gt;Invalid&lt;/b&gt;" style="text;strokeColor=none;align=center;fillColor=none;html=1;verticalAlign=middle;whiteSpace=wrap;rounded=0;" vertex="1" parent="1">
          <mxGeometry x="470" y="310" width="60" height="30" as="geometry" />
        </mxCell>
        <mxCell id="fp7W2-NEHHaZq4j7TUGE-46" value="&lt;b&gt;fig. Activity Diagram for ATM Management System&lt;/b&gt;" style="text;strokeColor=none;align=center;fillColor=none;html=1;verticalAlign=middle;whiteSpace=wrap;rounded=0;" vertex="1" parent="1">
          <mxGeometry x="260" y="1020" width="330" height="30" as="geometry" />
        </mxCell>
      </root>
    </mxGraphModel>
  </diagram>
</mxfile>
